<svg 
	xmlns="http://www.w3.org/2000/svg" 
	viewbox="0 0 128 128"
	width="128" 
	height="128">
		<circle cx="64" cy="64" r="56" stroke="black" fill="white"  stroke-width="2"/>
		<line x1="64" y1="110" x2="64" y2="99" stroke="black" stroke-width="2"/>
		<line x1="87" y1="104" x2="82" y2="94" stroke="black" stroke-width="2"/>
		<line x1="103" y1="87" x2="94" y2="82" stroke="black" stroke-width="2"/>
		<line x1="110" y1="64" x2="99" y2="64" stroke="black" stroke-width="2"/>
		<line x1="103" y1="41" x2="94" y2="46" stroke="black" stroke-width="2"/>
		<line x1="87" y1="24" x2="82" y2="34" stroke="black" stroke-width="2"/>
		<line x1="64" y1="18" x2="64" y2="29" stroke="black" stroke-width="2"/>
		<line x1="41" y1="24" x2="46" y2="34" stroke="black" stroke-width="2"/>
		<line x1="24" y1="41" x2="34" y2="46" stroke="black" stroke-width="2"/>
		<line x1="18" y1="64" x2="29" y2="64" stroke="black" stroke-width="2"/>
		<line x1="24" y1="87" x2="34" y2="82" stroke="black" stroke-width="2"/>
		<line x1="41" y1="104" x2="46" y2="94" stroke="black" stroke-width="2"/>
		<polyline points="109 31, 97 19, 97 15, 94 15, 94 11, 114 11, 114 15, 111 15" stroke="black"/>
		<line x1="64" y1="64" x2="106" y2="52" stroke="red"  stroke-width="3"/>
</svg>